<mxfile host="app.diagrams.net" modified="2024-04-05T12:06:23.736Z" agent="Mozilla/5.0 (Windows NT 10.0; Win64; x64) AppleWebKit/537.36 (KHTML, like Gecko) Chrome/123.0.0.0 Safari/537.36 Edg/123.0.0.0" etag="91YncNw8s1UMjJFxjDs4" version="24.2.1" type="device">
  <diagram name="Сторінка-1" id="xjeGrbjtb8yvGE886eUf">
    <mxGraphModel dx="1061" dy="664" grid="1" gridSize="10" guides="1" tooltips="1" connect="1" arrows="1" fold="1" page="1" pageScale="1" pageWidth="827" pageHeight="1169" math="0" shadow="0">
      <root>
        <mxCell id="0" />
        <mxCell id="1" parent="0" />
        <mxCell id="abTlaEg-vURRf209oJKJ-3" value="Docker (local)" style="whiteSpace=wrap;html=1;aspect=fixed;verticalAlign=top;fontSize=22;" vertex="1" parent="1">
          <mxGeometry x="20" y="160" width="340" height="340" as="geometry" />
        </mxCell>
        <mxCell id="abTlaEg-vURRf209oJKJ-1" value="&lt;div style=&quot;font-size: 22px;&quot;&gt;minikube&lt;/div&gt;" style="whiteSpace=wrap;html=1;aspect=fixed;verticalAlign=top;fillColor=#C3ABD0;" vertex="1" parent="1">
          <mxGeometry x="55" y="200" width="270" height="270" as="geometry" />
        </mxCell>
        <mxCell id="abTlaEg-vURRf209oJKJ-4" value="&lt;font style=&quot;font-size: 14px;&quot;&gt;Docker (minikube)&lt;/font&gt;" style="whiteSpace=wrap;html=1;aspect=fixed;verticalAlign=top;fillColor=#7EA6E0;" vertex="1" parent="1">
          <mxGeometry x="90" y="240" width="210" height="210" as="geometry" />
        </mxCell>
        <mxCell id="abTlaEg-vURRf209oJKJ-12" style="edgeStyle=orthogonalEdgeStyle;rounded=0;orthogonalLoop=1;jettySize=auto;html=1;exitX=0.5;exitY=1;exitDx=0;exitDy=0;entryX=1;entryY=0.75;entryDx=0;entryDy=0;" edge="1" parent="1" source="abTlaEg-vURRf209oJKJ-5" target="abTlaEg-vURRf209oJKJ-11">
          <mxGeometry relative="1" as="geometry">
            <Array as="points">
              <mxPoint x="253" y="335" />
            </Array>
          </mxGeometry>
        </mxCell>
        <mxCell id="abTlaEg-vURRf209oJKJ-14" value="Docker run" style="rounded=1;whiteSpace=wrap;html=1;verticalAlign=top;fillColor=#FFFFCC;" vertex="1" parent="1">
          <mxGeometry x="192.5" y="270" width="107.5" height="40" as="geometry" />
        </mxCell>
        <mxCell id="abTlaEg-vURRf209oJKJ-5" value="local registry" style="shape=process;whiteSpace=wrap;html=1;backgroundOutline=1;" vertex="1" parent="1">
          <mxGeometry x="205" y="290" width="95" height="20" as="geometry" />
        </mxCell>
        <mxCell id="abTlaEg-vURRf209oJKJ-7" style="edgeStyle=orthogonalEdgeStyle;rounded=0;orthogonalLoop=1;jettySize=auto;html=1;exitX=1;exitY=0.5;exitDx=0;exitDy=0;entryX=0;entryY=0.5;entryDx=0;entryDy=0;" edge="1" parent="1" source="abTlaEg-vURRf209oJKJ-6" target="abTlaEg-vURRf209oJKJ-5">
          <mxGeometry relative="1" as="geometry" />
        </mxCell>
        <mxCell id="abTlaEg-vURRf209oJKJ-6" value="Image build" style="shape=process;whiteSpace=wrap;html=1;backgroundOutline=1;" vertex="1" parent="1">
          <mxGeometry x="90" y="290" width="85" height="20" as="geometry" />
        </mxCell>
        <mxCell id="abTlaEg-vURRf209oJKJ-10" value="Kubernetes cluster" style="shape=hexagon;perimeter=hexagonPerimeter2;whiteSpace=wrap;html=1;fixedSize=1;verticalAlign=middle;" vertex="1" parent="1">
          <mxGeometry x="100" y="360" width="190" height="70" as="geometry" />
        </mxCell>
        <mxCell id="abTlaEg-vURRf209oJKJ-13" style="edgeStyle=orthogonalEdgeStyle;rounded=0;orthogonalLoop=1;jettySize=auto;html=1;exitX=0.5;exitY=1;exitDx=0;exitDy=0;entryX=0.5;entryY=0;entryDx=0;entryDy=0;" edge="1" parent="1" source="abTlaEg-vURRf209oJKJ-11" target="abTlaEg-vURRf209oJKJ-10">
          <mxGeometry relative="1" as="geometry" />
        </mxCell>
        <mxCell id="abTlaEg-vURRf209oJKJ-11" value="docker pull" style="shape=process;whiteSpace=wrap;html=1;backgroundOutline=1;" vertex="1" parent="1">
          <mxGeometry x="152.5" y="320" width="85" height="20" as="geometry" />
        </mxCell>
        <mxCell id="abTlaEg-vURRf209oJKJ-15" value="Docker (local)" style="whiteSpace=wrap;html=1;aspect=fixed;verticalAlign=top;fontSize=22;" vertex="1" parent="1">
          <mxGeometry x="500" y="160" width="340" height="340" as="geometry" />
        </mxCell>
        <mxCell id="abTlaEg-vURRf209oJKJ-16" value="&lt;div style=&quot;font-size: 22px;&quot;&gt;minikube&lt;/div&gt;" style="whiteSpace=wrap;html=1;aspect=fixed;verticalAlign=top;fillColor=#C3ABD0;" vertex="1" parent="1">
          <mxGeometry x="535" y="200" width="270" height="270" as="geometry" />
        </mxCell>
        <mxCell id="abTlaEg-vURRf209oJKJ-17" value="&lt;font style=&quot;font-size: 14px;&quot;&gt;Docker (minikube)&lt;/font&gt;" style="whiteSpace=wrap;html=1;aspect=fixed;verticalAlign=top;fillColor=#7EA6E0;" vertex="1" parent="1">
          <mxGeometry x="570" y="240" width="210" height="210" as="geometry" />
        </mxCell>
        <mxCell id="abTlaEg-vURRf209oJKJ-27" style="edgeStyle=orthogonalEdgeStyle;rounded=0;orthogonalLoop=1;jettySize=auto;html=1;exitX=0.5;exitY=1;exitDx=0;exitDy=0;entryX=1;entryY=0.75;entryDx=0;entryDy=0;" edge="1" parent="1" source="abTlaEg-vURRf209oJKJ-19" target="abTlaEg-vURRf209oJKJ-25">
          <mxGeometry relative="1" as="geometry" />
        </mxCell>
        <mxCell id="abTlaEg-vURRf209oJKJ-19" value="GitLab Registry" style="rounded=1;whiteSpace=wrap;html=1;verticalAlign=middle;fillColor=#FFFFCC;fontSize=20;" vertex="1" parent="1">
          <mxGeometry x="870" y="160" width="107.5" height="70" as="geometry" />
        </mxCell>
        <mxCell id="abTlaEg-vURRf209oJKJ-23" value="Kubernetes cluster" style="shape=hexagon;perimeter=hexagonPerimeter2;whiteSpace=wrap;html=1;fixedSize=1;verticalAlign=middle;" vertex="1" parent="1">
          <mxGeometry x="580" y="360" width="190" height="70" as="geometry" />
        </mxCell>
        <mxCell id="abTlaEg-vURRf209oJKJ-24" style="edgeStyle=orthogonalEdgeStyle;rounded=0;orthogonalLoop=1;jettySize=auto;html=1;exitX=0.5;exitY=1;exitDx=0;exitDy=0;entryX=0.5;entryY=0;entryDx=0;entryDy=0;" edge="1" parent="1" source="abTlaEg-vURRf209oJKJ-25" target="abTlaEg-vURRf209oJKJ-23">
          <mxGeometry relative="1" as="geometry" />
        </mxCell>
        <mxCell id="abTlaEg-vURRf209oJKJ-25" value="docker pull" style="shape=process;whiteSpace=wrap;html=1;backgroundOutline=1;" vertex="1" parent="1">
          <mxGeometry x="632.5" y="280" width="85" height="20" as="geometry" />
        </mxCell>
        <mxCell id="abTlaEg-vURRf209oJKJ-28" value="Поточний стан" style="text;html=1;align=center;verticalAlign=middle;resizable=0;points=[];autosize=1;strokeColor=none;fillColor=none;fontSize=22;fontStyle=5" vertex="1" parent="1">
          <mxGeometry x="105" y="115" width="170" height="40" as="geometry" />
        </mxCell>
        <mxCell id="abTlaEg-vURRf209oJKJ-29" value="Необхідний стан" style="text;html=1;align=center;verticalAlign=middle;resizable=0;points=[];autosize=1;strokeColor=none;fillColor=none;fontSize=22;fontStyle=5" vertex="1" parent="1">
          <mxGeometry x="575" y="110" width="190" height="40" as="geometry" />
        </mxCell>
      </root>
    </mxGraphModel>
  </diagram>
</mxfile>
